<svg aria-hidden="true" style="position: absolute; width: 0; height: 0; overflow: hidden;" version="1.1" xmlns="http://www.w3.org/2000/svg" xmlns:xlink="http://www.w3.org/1999/xlink">
<defs>
<symbol id="icon-equals" viewBox="0 0 24 24">
<path d="M18 7h-12c-1.104 0-2 0.896-2 2s0.896 2 2 2h12c1.104 0 2-0.896 2-2s-0.896-2-2-2z"></path>
<path d="M18 14h-12c-1.104 0-2 0.896-2 2s0.896 2 2 2h12c1.104 0 2-0.896 2-2s-0.896-2-2-2z"></path>
</symbol>
<symbol id="icon-minus" viewBox="0 0 24 24">
<path d="M18 11h-12c-1.104 0-2 0.896-2 2s0.896 2 2 2h12c1.104 0 2-0.896 2-2s-0.896-2-2-2z"></path>
</symbol>
<symbol id="icon-plus" viewBox="0 0 24 24">
<path d="M18 10h-4v-4c0-1.104-0.896-2-2-2s-2 0.896-2 2l0.071 4h-4.071c-1.104 0-2 0.896-2 2s0.896 2 2 2l4.071-0.071-0.071 4.071c0 1.104 0.896 2 2 2s2-0.896 2-2v-4.071l4 0.071c1.104 0 2-0.896 2-2s-0.896-2-2-2z"></path>
</symbol>
<symbol id="icon-times" viewBox="0 0 24 24">
<path d="M17.414 6.586c-0.78-0.781-2.048-0.781-2.828 0l-2.586 2.586-2.586-2.586c-0.78-0.781-2.048-0.781-2.828 0-0.781 0.781-0.781 2.047 0 2.828l2.585 2.586-2.585 2.586c-0.781 0.781-0.781 2.047 0 2.828 0.39 0.391 0.902 0.586 1.414 0.586s1.024-0.195 1.414-0.586l2.586-2.586 2.586 2.586c0.39 0.391 0.902 0.586 1.414 0.586s1.024-0.195 1.414-0.586c0.781-0.781 0.781-2.047 0-2.828l-2.585-2.586 2.585-2.586c0.781-0.781 0.781-2.047 0-2.828z"></path>
</symbol>
<symbol id="icon-divide" viewBox="0 0 24 24">
<path d="M14.25 6c0 1.243-1.007 2.25-2.25 2.25s-2.25-1.007-2.25-2.25c0-1.243 1.007-2.25 2.25-2.25s2.25 1.007 2.25 2.25z"></path>
<path d="M14.25 18c0 1.243-1.007 2.25-2.25 2.25s-2.25-1.007-2.25-2.25c0-1.243 1.007-2.25 2.25-2.25s2.25 1.007 2.25 2.25z"></path>
<path d="M18 10h-12c-1.104 0-2 0.896-2 2s0.896 2 2 2h12c1.104 0 2-0.896 2-2s-0.896-2-2-2z"></path>
</symbol>
<symbol id="icon-delete" viewBox="0 0 24 24">
<path d="M21 5c0.276 0 0.525 0.111 0.707 0.293s0.293 0.431 0.293 0.707v12c0 0.276-0.111 0.525-0.293 0.707s-0.431 0.293-0.707 0.293h-12.546l-6.125-7 6.125-7zM21 3h-13c-0.3 0-0.568 0.132-0.753 0.341l-7 8c-0.333 0.38-0.326 0.942 0 1.317l7 8c0.198 0.226 0.474 0.341 0.753 0.342h13c0.828 0 1.58-0.337 2.121-0.879s0.879-1.293 0.879-2.121v-12c0-0.828-0.337-1.58-0.879-2.121s-1.293-0.879-2.121-0.879zM11.293 9.707l2.293 2.293-2.293 2.293c-0.391 0.391-0.391 1.024 0 1.414s1.024 0.391 1.414 0l2.293-2.293 2.293 2.293c0.391 0.391 1.024 0.391 1.414 0s0.391-1.024 0-1.414l-2.293-2.293 2.293-2.293c0.391-0.391 0.391-1.024 0-1.414s-1.024-0.391-1.414 0l-2.293 2.293-2.293-2.293c-0.391-0.391-1.024-0.391-1.414 0s-0.391 1.024 0 1.414z"></path>
</symbol>
</defs>
</svg>
